<?xml version="1.0" standalone="no"?><!DOCTYPE svg PUBLIC "-//W3C//DTD SVG 1.1//EN" "http://www.w3.org/Graphics/SVG/1.1/DTD/svg11.dtd"><svg t="1634477173842" class="icon" viewBox="0 0 1024 1024" version="1.1" xmlns="http://www.w3.org/2000/svg" p-id="2040" width="200" height="200" xmlns:xlink="http://www.w3.org/1999/xlink"><defs><style type="text/css"></style></defs><path d="M259.749495 748.088889c-5.430303 0-9.567677-4.39596-9.567677-9.567677v-56.888889c0-5.430303 4.39596-9.567677 9.567677-9.567677s9.567677 4.39596 9.567677 9.567677v56.888889c0.258586 5.171717-4.137374 9.567677-9.567677 9.567677zM314.569697 346.505051h-4.137374c-62.836364-1.810101-100.072727-46.80404-101.624242-48.872728-3.361616-4.39596-2.844444-10.60202 1.551515-13.963636 4.137374-3.361616 10.60202-2.844444 13.963636 1.551515 0.258586 0.517172 33.357576 39.822222 87.143435 41.373737 46.286869 1.292929 94.383838-25.082828 143.256565-78.351515 3.620202-4.137374 10.084848-4.39596 13.963637-0.517171 4.137374 3.620202 4.39596 10.084848 0.517171 13.963636-51.458586 56.371717-103.434343 84.816162-154.634343 84.816162zM670.642424 346.505051c-50.941414 0-103.175758-28.444444-154.634343-84.816162-3.620202-4.137374-3.361616-10.343434 0.517172-13.963636 4.137374-3.620202 10.343434-3.361616 13.963636 0.517171 48.872727 53.268687 96.969697 79.644444 143.256566 78.351515 53.785859-1.551515 86.626263-41.115152 87.143434-41.373737 3.361616-4.137374 9.826263-4.913131 13.963636-1.292929 4.137374 3.361616 4.913131 9.826263 1.551515 13.963636-1.551515 1.810101-38.787879 46.80404-101.624242 48.872727-1.292929-0.258586-2.585859-0.258586-4.137374-0.258585z" fill="#666767" p-id="2041"></path><path d="M494.028283 238.674747m-34.909091 0a34.909091 34.909091 0 1 0 69.818182 0 34.909091 34.909091 0 1 0-69.818182 0Z" fill="#666767" p-id="2042"></path><path d="M494.028283 231.951515c-8.274747 0-14.99798-6.723232-14.99798-14.99798V139.894949c0-8.274747 6.723232-14.99798 14.99798-14.997979s14.99798 6.723232 14.99798 14.997979v77.058586c0 8.274747-6.723232 14.99798-14.99798 14.99798zM701.672727 386.327273H286.383838c-5.430303 0-9.826263-4.39596-9.826262-9.826263s4.39596-9.826263 9.826262-9.826263h415.288889c5.430303 0 9.826263 4.39596 9.826263 9.826263s-4.39596 9.826263-9.826263 9.826263z" fill="#666767" p-id="2043"></path><path d="M321.810101 574.836364h-3.620202c-38.529293 0-70.076768-31.547475-70.076768-70.076768v-9.309091c0-5.430303 4.39596-9.567677 9.567677-9.567677s9.567677 4.39596 9.567677 9.567677v9.309091c0 27.927273 22.755556 50.682828 50.682828 50.682828h3.620202c27.927273 0 50.682828-22.755556 50.682828-50.682828v-128.775758c0-5.430303 4.39596-9.567677 9.567677-9.567676s9.567677 4.39596 9.567677 9.567676v128.775758c0.517172 38.529293-31.030303 70.076768-69.559596 70.076768zM666.246465 574.836364H662.626263c-38.529293 0-70.076768-31.547475-70.076768-70.076768v-128.775758c0-5.430303 4.39596-9.567677 9.567677-9.567676s9.567677 4.39596 9.567676 9.567676v128.775758c0 27.927273 22.755556 50.682828 50.682829 50.682828h3.620202c27.927273 0 50.682828-22.755556 50.682828-50.682828v-9.309091c0-5.430303 4.39596-9.567677 9.567677-9.567677s9.567677 4.39596 9.567677 9.567677v9.309091c0.517172 38.529293-30.771717 70.076768-69.559596 70.076768zM553.50303 443.216162h-124.379798c-5.430303 0-9.567677-4.39596-9.567676-9.567677s4.39596-9.567677 9.567676-9.567677h124.379798c5.430303 0 9.567677 4.39596 9.567677 9.567677s-4.39596 9.567677-9.567677 9.567677z" fill="#666767" p-id="2044"></path><path d="M602.375758 514.327273h-220.315152c-5.430303 0-9.567677-4.39596-9.567677-9.567677s4.39596-9.567677 9.567677-9.567677h220.315152c5.430303 0 9.567677 4.39596 9.567676 9.567677s-4.137374 9.567677-9.567676 9.567677zM724.686869 584.921212H259.749495c-5.430303 0-9.567677-4.39596-9.567677-9.567677s4.39596-9.567677 9.567677-9.567676H724.686869c5.430303 0 9.567677 4.39596 9.567676 9.567676s-4.137374 9.567677-9.567676 9.567677zM724.686869 689.648485H259.749495c-5.430303 0-9.567677-4.39596-9.567677-9.567677s4.39596-9.567677 9.567677-9.567677H724.686869c5.430303 0 9.567677 4.39596 9.567676 9.567677s-4.137374 9.567677-9.567676 9.567677z" fill="#666767" p-id="2045"></path><path d="M361.115152 686.80404c-5.430303 0-9.567677-4.39596-9.567677-9.567676v-101.882829c0-5.430303 4.39596-9.567677 9.567677-9.567676s9.567677 4.39596 9.567676 9.567676v101.882829c0.258586 5.430303-4.137374 9.567677-9.567676 9.567676zM619.183838 686.80404c-5.430303 0-9.567677-4.39596-9.567676-9.567676v-101.882829c0-5.430303 4.39596-9.567677 9.567676-9.567676s9.567677 4.39596 9.567677 9.567676v101.882829c0.258586 5.430303-4.137374 9.567677-9.567677 9.567676zM574.448485 638.707071h-159.288889c-5.430303 0-9.567677-4.39596-9.567677-9.567677s4.39596-9.567677 9.567677-9.567677h159.288889c5.430303 0 9.567677 4.39596 9.567677 9.567677s-4.39596 9.567677-9.567677 9.567677zM725.979798 748.088889c-5.430303 0-9.567677-4.39596-9.567677-9.567677v-56.888889c0-5.430303 4.39596-9.567677 9.567677-9.567677s9.567677 4.39596 9.567677 9.567677v56.888889c0.258586 5.171717-4.137374 9.567677-9.567677 9.567677zM758.30303 829.80202c-33.874747 0-51.458586-16.290909-66.973737-30.771717-14.480808-13.705051-27.151515-25.6-53.268687-25.6-26.117172 0-38.787879 11.894949-53.268687 25.6-15.515152 14.480808-32.840404 30.771717-66.973737 30.771717s-51.458586-16.290909-66.973738-30.771717c-14.480808-13.705051-27.151515-25.6-53.268686-25.6-26.117172 0-38.787879 11.894949-53.268687 25.6-15.515152 14.480808-32.840404 30.771717-66.973738 30.771717s-51.458586-16.290909-66.973737-30.771717c-14.480808-13.705051-27.151515-25.6-53.268687-25.6v-19.911111c33.874747 0 51.458586 16.290909 66.973737 30.771717 14.480808 13.705051 27.151515 25.6 53.268687 25.6s38.787879-11.894949 53.268687-25.6c15.515152-14.480808 32.840404-30.771717 66.973738-30.771717 33.874747 0 51.458586 16.290909 66.973737 30.771717 14.480808 13.705051 27.151515 25.6 53.268687 25.6s38.787879-11.894949 53.268687-25.6c15.515152-14.480808 32.840404-30.771717 66.973737-30.771717 33.874747 0 51.458586 16.290909 66.973737 30.771717 14.480808 13.705051 27.151515 25.6 53.268687 25.6 26.117172 0 38.787879-11.894949 53.268687-25.6 15.515152-14.480808 32.840404-30.771717 66.973738-30.771717v19.911111c-26.117172 0-38.787879 11.894949-53.268687 25.6-15.515152 14.222222-33.09899 30.771717-66.973738 30.771717zM758.30303 910.739394c-33.874747 0-51.458586-16.290909-66.973737-30.771717-14.480808-13.705051-27.151515-25.6-53.268687-25.6-26.117172 0-38.787879 11.894949-53.268687 25.6-15.515152 14.480808-32.840404 30.771717-66.973737 30.771717s-51.458586-16.290909-66.973738-30.771717c-14.480808-13.705051-27.151515-25.6-53.268686-25.6-26.117172 0-38.787879 11.894949-53.268687 25.6-15.515152 14.480808-32.840404 30.771717-66.973738 30.771717s-51.458586-16.290909-66.973737-30.771717c-14.480808-13.705051-27.151515-25.6-53.268687-25.6v-19.911111c33.874747 0 51.458586 16.290909 66.973737 30.771717 14.480808 13.705051 27.151515 25.6 53.268687 25.6s38.787879-11.894949 53.268687-25.6c15.515152-14.480808 32.840404-30.771717 66.973738-30.771717 33.874747 0 51.458586 16.290909 66.973737 30.771717 14.480808 13.705051 27.151515 25.6 53.268687 25.6s38.787879-11.894949 53.268687-25.6c15.515152-14.480808 32.840404-30.771717 66.973737-30.771717 33.874747 0 51.458586 16.290909 66.973737 30.771717 14.480808 13.705051 27.151515 25.6 53.268687 25.6 26.117172 0 38.787879-11.894949 53.268687-25.6 15.515152-14.480808 32.840404-30.771717 66.973738-30.771717v19.911111c-26.117172 0-38.787879 11.894949-53.268687 25.6-15.515152 14.480808-33.09899 30.771717-66.973738 30.771717z" fill="#666767" p-id="2046"></path></svg>